<svg width="200" height="100" xmlns="http://www.w3.org/2000/svg" xml:space="preserve" version="1.1">

	<g>
		<title>Layer 1</title>
		<g stroke="null" stroke-width="0" id="OBJECTS">
			<g stroke="null" id="svg_2">
				<path stroke="null" id="svg_3" fill="#06BCA1"
					d="m178.11776,82.46962l-160.80202,0c-2.35835,0 -4.28753,-2.01533 -4.28753,-4.47899l0,-54.8752c0,-2.46366 1.92918,-4.47899 4.28753,-4.47899l160.80202,0c2.35835,0 4.28753,2.01533 4.28753,4.47899l0,54.8752c0,2.46366 -1.93022,4.47899 -4.28753,4.47899z" />
				<g stroke="null" id="svg_4">
					<path stroke="null" id="svg_5" fill="#2E3F49"
						d="m65.61707,92.41784l-58.40036,0c-0.73646,0 -1.35834,-0.64965 -1.35834,-1.419l0,-27.94143l-5.85837,0l0,27.94143c0,4.15688 3.23752,7.53897 7.21671,7.53897l58.40036,0l0,-6.11998z" />
					<path stroke="null" id="svg_6" fill="#2E3F49"
						d="m191.31054,55.99506l0,33.59131c0,0.76935 -0.62188,1.419 -1.35834,1.419l-27.371,0l0,6.11998l27.371,0c3.97919,0 7.21671,-3.38209 7.21671,-7.53897l0,-33.59131l-5.85837,0z" />
				</g>
				<g stroke="null" id="svg_7">
					<rect stroke="null" id="svg_8" fill="#2E3F49" height="6.30606" width="69.04626" y="1.82392"
						x="51.98573" />
					<rect stroke="null" id="svg_9" fill="#2E3F49" height="6.30606" width="29.47622" y="1.82392"
						x="125.03306" />
				</g>
				<text stroke="null" x="-240.897" y="-350.43619" id="svg_10" font-size="34.2666px"
					font-family="'LeagueSpartan-Bold'" fill="#F8ECDC"
					transform="matrix(1.04167 0 0 1.08819 280.91 449.496)">LOGO</text>
				<path stroke="null" id="svg_11" fill="#FF6F52"
					d="m194.07098,43.69308l-27.28454,0c-3.24481,0 -5.90004,-2.77379 -5.90004,-6.1635l0,-28.50294c0,-3.38971 2.65522,-6.1635 5.90004,-6.1635l27.28454,0c3.24481,0 5.90004,2.77379 5.90004,6.1635l0,28.50294c-0.00104,3.3908 -2.65522,6.1635 -5.90004,6.1635z" />
				<text stroke="null" x="-240.897" y="-350.43619" id="svg_12" font-size="30.729px"
					font-family="'LeagueSpartan-Bold'" fill="#F8ECDC"
					transform="matrix(1.04167 0 0 1.08819 423.764 417.267)">L</text>
				<rect stroke="null" id="svg_13" fill="#2E3F49" height="6.30606" width="29.47622" y="91.05543"
					x="126.67786" />
			</g>
		</g>
	</g>
</svg>